<svg viewBox="0 0 288.84 288.84" height="288.84" width="288.84" xmlns="http://www.w3.org/2000/svg"><style>@media (prefers-color-scheme:dark){.ch{fill:#fff}}</style><path d="m0 46.000001v178.72h40.11v33.72l38.92-33.72h209.81v-178.72h-288.84zm274.68 164.54h-200.94l-19.44 16.85v-16.85h-40.12v-150.35h260.5z" fill="#7bc143"/><path class="ch" d="m175.97 147.880001c-4.2-2.85-7.32-3.93-11.26-3.93-8.68 0-14.92 6.24-14.92 14.92s6.37 14.8 14.92 14.8a17.17 17.17 0 0 0 11.26-4.08v18.44a34.48 34.48 0 0 1 -15.2 3.39c-18.85 0-33.65-14.12-33.65-32.29 0-19 14.66-33.11 34.2-33.11a29.92 29.92 0 0 1 14.65 3.39zm34.58-55.54v45.73c5.83-6.78 10.85-9.09 19.67-9.09 7.6 0 13.45 2.18 17.78 6.79 4.34 4.34 5.69 8.55 5.69 16.94v39.07h-21.71v-31.03c0-6.24-.13-7.47-1.35-9.77-1.36-2.85-4.88-4.75-8.68-4.75a12.35 12.35 0 0 0 -9.09 4.08c-1.63 2.16-2.31 4.48-2.31 8.54v33h-21.71v-99.48z" fill="#000"/></svg>