<svg viewBox="0 0 509 263" height="263" width="509" xmlns="http://www.w3.org/2000/svg"><path d="M35.29 87.834c-2.245-1.538-3.929-2.1-6.026-2.1-4.637 0-7.974 3.343-7.974 7.988 0 4.587 3.396 7.93 7.974 7.93 2.245 0 4.076-.651 6.026-2.19v9.883c-2.895 1.302-5.228 1.805-8.123 1.805-10.101 0-18.017-7.575-18.017-17.309 0-10.179 7.827-17.753 18.283-17.753 3.042 0 5.228.503 7.827 1.805v9.941zm41.97 5.74c0 10.475-8.211 17.753-19.966 17.753-11.549 0-19.612-7.426-19.612-18.048 0-4.794 2.186-9.528 5.966-12.812 3.25-2.811 8.477-4.557 13.794-4.557 11.607 0 19.818 7.338 19.818 17.664zm-27.32-.147c0 4.231 3.337 7.633 7.561 7.633 4.135 0 7.472-3.432 7.472-7.574 0-4.231-3.337-7.575-7.561-7.575-4.046.03-7.473 3.462-7.473 7.516zM91.2 77.153v4.083c3.397-3.343 6.321-4.586 10.662-4.586 5.081 0 8.507 1.894 11.106 6.095 2.599-4.083 6.321-6.184 11.194-6.184 3.84 0 7.473 1.657 9.304 4.439 1.24 1.804 1.802 4.231 1.802 7.722v21.392H123.66V93.811c0-3.343-.059-3.935-.65-5.237-.738-1.805-2.333-2.9-4.223-2.9-1.95 0-3.929 1.243-4.785 3.048-.591 1.243-.798 2.633-.798 5.089v16.303h-11.607V93.811c0-3.491-.059-4.083-.502-5.237-.65-1.805-2.629-3.136-4.49-3.136-1.802 0-3.78 1.242-4.578 2.751-.591 1.154-.797 2.693-.797 5.593v16.303H79.623V77.153zm59.308 0v4.083c3.397-3.343 6.321-4.586 10.662-4.586 5.081 0 8.507 1.894 11.106 6.095 2.599-4.083 6.321-6.184 11.194-6.184 3.84 0 7.473 1.657 9.304 4.439 1.24 1.804 1.802 4.231 1.802 7.722v21.392h-11.608V93.811c0-3.343-.059-3.935-.65-5.237-.738-1.805-2.333-2.9-4.223-2.9-1.95 0-3.929 1.243-4.785 3.048-.591 1.243-.798 2.633-.798 5.089v16.303h-11.607V93.811c0-3.491-.059-4.083-.502-5.237-.65-1.805-2.629-3.136-4.49-3.136-1.802 0-3.78 1.242-4.578 2.751-.591 1.154-.797 2.693-.797 5.593v16.303H138.93V77.153zm59.338 18.67c0 3.995 1.949 6.036 5.936 6.036 3.929 0 5.878-2.041 5.878-6.036V77.124h11.608v20.977c0 8.729-6.085 13.374-17.486 13.374-11.46 0-17.574-4.645-17.574-13.374V77.153h11.638zm38.603-18.67v4.142c3.131-3.639 5.819-4.882 10.515-4.882 4.076 0 7.177 1.154 9.51 3.64 2.334 2.337 3.042 4.586 3.042 9.083v20.949H259.91V93.427c0-3.344-.059-3.995-.739-5.238-.738-1.538-2.628-2.544-4.637-2.544-1.89 0-3.692.888-4.873 2.189-.886 1.154-1.241 2.397-1.241 4.587v17.664h-11.607V77.153zm38.987-12.664c0 3.64-2.894 6.539-6.527 6.539s-6.528-2.899-6.528-6.627c0-3.551 2.984-6.48 6.528-6.48a6.54 6.54 0 016.527 6.568zm-.709 45.596H275.12V77.153h11.607zm28.384-22.251c-2.244-1.538-3.928-2.1-6.025-2.1-4.637 0-7.975 3.343-7.975 7.988 0 4.587 3.397 7.93 7.975 7.93 2.245 0 4.076-.651 6.025-2.19v9.883c-2.894 1.302-5.227 1.805-8.122 1.805-10.101 0-18.017-7.575-18.017-17.309 0-10.179 7.827-17.753 18.283-17.753 3.042 0 5.228.503 7.827 1.805v9.941zm40.819-10.681v32.961h-11.608v-3.639c-2.54 3.284-5.73 4.734-10.16 4.734-9.363 0-16.629-7.723-16.629-17.664 0-9.883 7.178-17.457 16.54-17.457 4.224 0 7.325 1.302 10.249 4.29v-3.195h11.608zm-26.287 16.362c0 4.291 3.338 7.634 7.561 7.634 4.135 0 7.473-3.343 7.473-7.575 0-4.142-3.338-7.485-7.561-7.485-4.076 0-7.473 3.343-7.473 7.426zm44.363 16.57h-11.608V86.799h-3.839v-9.675h3.839v-9.883h11.608v9.883h6.616v9.675h-6.616zm19.464-14.321c.059 5.03 2.392 7.427 7.03 7.427 2.746 0 4.282-.799 5.73-3.137h11.194c-.798 2.752-1.536 4.231-2.895 5.829-2.983 3.491-8.122 5.533-14 5.533-11.401 0-18.814-6.924-18.814-17.516 0-10.829 7.029-17.664 18.283-17.664 11.194 0 17.928 6.923 17.928 18.404v1.154H393.47zm13.646-6.776c-.798-3.343-3.338-5.296-6.823-5.296-3.544 0-5.966 1.953-6.528 5.296zm-135.511 24.618v24.498c3.131-3.639 5.819-4.882 10.515-4.882 4.076 0 7.177 1.154 9.51 3.64 2.334 2.337 3.043 4.586 3.043 9.083v20.949h-11.608v-16.658c0-3.344-.059-3.995-.738-5.238-.739-1.538-2.629-2.544-4.638-2.544-1.89 0-3.691.887-4.873 2.189-.886 1.154-1.24 2.397-1.24 4.587v17.664h-11.608v-53.288zm38.544 38.967c.059 5.03 2.393 7.427 7.03 7.427 2.747 0 4.283-.799 5.73-3.137h11.194c-.798 2.752-1.536 4.231-2.895 5.829-2.983 3.491-8.122 5.533-14 5.533-11.4 0-18.814-6.924-18.814-17.516 0-10.829 7.03-17.664 18.283-17.664 11.194 0 17.928 6.923 17.928 18.404v1.154H310.15zm13.646-6.746c-.797-3.344-3.338-5.296-6.823-5.296-3.544 0-5.966 1.952-6.527 5.296zm53.224-11.865v32.961h-11.608v-3.639c-2.54 3.284-5.73 4.734-10.16 4.734-9.363 0-16.629-7.723-16.629-17.664 0-9.883 7.177-17.457 16.54-17.457 4.224 0 7.325 1.302 10.249 4.29v-3.195h11.608zm-26.287 16.362c0 4.291 3.337 7.634 7.561 7.634 4.135 0 7.472-3.343 7.472-7.575 0-4.142-3.337-7.485-7.561-7.485-4.046.029-7.472 3.373-7.472 7.426zm42.915 16.599H382.04v-53.317h11.607zm19.464 0h-11.607v-23.286h-3.84v-9.675h3.84v-9.882h11.607v9.882h6.616v9.675h-6.616zm22.3-53.317v24.498c3.131-3.639 5.819-4.882 10.515-4.882 4.076 0 7.177 1.154 9.51 3.64 2.334 2.337 3.043 4.586 3.043 9.083v20.949h-11.608v-16.658c0-3.344-.059-3.995-.738-5.238-.739-1.538-2.629-2.544-4.638-2.544-1.89 0-3.692.887-4.873 2.189-.886 1.154-1.241 2.397-1.241 4.587v17.664h-11.607v-53.288h11.637z"/><path d="M222.013 248.97v-37.606h-44.659v-77.669h15.802v61.839h44.658v18.789l21.65-18.789h223.734V27.8H193.156v23.167h-15.802V12H499v199.364H265.371z" fill="#66c438"/></svg>